<?xml version="1.0" standalone="no"?>
<!DOCTYPE svg PUBLIC "-//W3C//DTD SVG 20010904//EN"
 "http://www.w3.org/TR/2001/REC-SVG-20010904/DTD/svg10.dtd">
<svg version="1.0" xmlns="http://www.w3.org/2000/svg"
 width="512.000000pt" height="512.000000pt" viewBox="0 0 512.000000 512.000000"
 preserveAspectRatio="xMidYMid meet">

<g transform="translate(0.000000,512.000000) scale(0.100000,-0.100000)"
fill="#000000" stroke="none">
<path d="M2710 4763 c-351 -33 -727 -183 -1033 -412 -43 -32 -107 -67 -170
-92 -435 -172 -773 -524 -883 -919 -10 -36 -42 -112 -71 -169 -60 -118 -97
-225 -118 -348 -12 -67 -25 -104 -59 -162 -392 -681 -59 -1341 924 -1836 113
-56 253 -128 313 -158 59 -31 151 -70 205 -88 53 -17 128 -47 166 -66 83 -42
273 -106 376 -127 377 -79 753 -17 1185 195 259 127 461 268 668 469 141 136
258 275 350 415 80 123 199 367 242 497 138 423 131 889 -21 1296 -51 137
-130 289 -215 419 -41 61 -99 153 -131 204 -198 329 -456 560 -748 673 -52 20
-117 46 -145 58 -212 88 -354 128 -537 147 -91 10 -218 12 -298 4z m304 -94
c111 -14 151 -27 86 -29 -25 -1 -65 -5 -90 -9 -29 -4 -59 -2 -86 7 -23 7 -77
19 -120 26 l-79 14 100 1 c55 0 140 -4 189 -10z m-394 -134 c-52 -19 -150 -62
-218 -95 l-123 -61 -132 3 -132 3 130 52 c215 86 388 131 505 132 l65 0 -95
-34z m915 -35 c8 -13 -5 -13 -25 0 -13 8 -13 10 2 10 9 0 20 -4 23 -10z m-485
-51 c0 -5 -34 -9 -77 -9 -88 0 -91 7 -7 18 61 9 84 6 84 -9z m341 -19 c39 -12
69 -23 67 -25 -8 -8 -205 30 -223 43 -18 13 -15 14 32 9 29 -3 85 -16 124 -27z
m-346 -100 c39 -6 94 -18 123 -27 46 -15 60 -25 93 -72 21 -30 37 -56 35 -58
-2 -2 -23 5 -47 15 -108 45 -303 81 -449 83 -47 0 -94 4 -105 8 -16 7 -9 12
37 25 108 32 210 40 313 26z m465 -45 c233 -63 335 -112 427 -206 95 -97 148
-215 209 -464 33 -136 31 -150 -12 -79 -91 151 -262 334 -409 437 -53 36 -88
69 -103 96 -38 68 -112 151 -175 197 -32 24 -53 44 -46 44 8 0 57 -11 109 -25z
m-1435 -5 c-11 -5 -83 -34 -160 -64 -155 -60 -301 -128 -445 -206 l-95 -52 60
62 c55 57 215 174 292 213 44 23 218 52 328 55 31 0 36 -1 20 -8z m311 -28
c-10 -17 -127 -83 -139 -79 -6 2 22 22 63 45 81 45 84 46 76 34z m1669 -64
c37 -38 37 -40 10 -23 -30 19 -54 44 -55 58 0 12 5 9 45 -35z m-1440 2 c-3 -5
-23 -10 -43 -10 -28 0 -33 3 -22 10 20 13 73 13 65 0z m-760 -115 c-16 -14
-85 -53 -151 -85 -298 -148 -539 -343 -713 -578 -33 -46 -61 -79 -61 -73 0 22
60 129 129 234 66 98 77 109 173 175 57 38 164 105 238 147 131 76 385 204
405 205 6 0 -3 -11 -20 -25z m606 -51 c-82 -39 -102 -44 -160 -43 -55 0 -62 2
-41 10 37 16 263 78 280 78 8 0 -27 -20 -79 -45z m-1299 -101 c-72 -72 -152
-164 -184 -211 -30 -45 -77 -101 -103 -124 l-48 -42 18 35 c69 134 215 300
355 405 47 35 86 64 87 64 1 0 -55 -57 -125 -127z m1763 111 c19 -15 19 -15
-9 -12 -16 2 -31 9 -34 16 -5 17 19 15 43 -4z m-91 -93 c4 -5 -23 -11 -58 -13
-70 -3 -78 8 -11 15 22 2 45 4 52 5 6 1 14 -2 17 -7z m543 -62 c92 -34 106
-49 143 -144 18 -47 31 -88 28 -90 -3 -3 -57 53 -122 125 -64 71 -114 130
-112 130 3 0 31 -10 63 -21z m-1230 -6 c-8 -8 -148 -63 -160 -63 -5 0 5 12 22
26 18 15 51 29 78 34 67 11 67 11 60 3z m293 3 c0 -8 -103 -66 -118 -66 -12 0
-13 3 -4 12 30 30 122 72 122 54z m-650 -132 c-46 -46 -116 -94 -165 -113 -28
-10 116 124 155 144 68 36 70 30 10 -31z m2621 -57 c25 -49 12 -39 -21 17 -13
22 -18 36 -12 32 7 -4 22 -26 33 -49z m-1521 -8 c48 -30 122 -91 116 -97 -4
-4 -124 78 -160 110 -20 16 9 8 44 -13z m-1500 7 c0 -2 -39 -38 -87 -81 l-88
-77 83 81 c77 75 92 88 92 77z m548 -2 c-3 -3 -39 -21 -79 -40 -41 -19 -67
-28 -59 -20 8 8 42 27 75 40 64 27 72 29 63 20z m378 -19 c-11 -8 -29 -15 -40
-15 -17 1 -15 4 9 15 40 18 55 18 31 0z m1978 -43 c102 -168 195 -391 246
-586 48 -187 63 -325 57 -526 -7 -231 -37 -380 -96 -479 -94 -159 -236 -325
-396 -462 -107 -91 -127 -104 -100 -63 10 16 41 67 68 114 27 47 73 126 102
175 212 361 268 730 176 1164 -17 80 -32 184 -35 253 -8 151 -37 361 -62 451
-9 31 4 18 40 -41z m-1785 -39 c20 -5 15 -9 -39 -30 -36 -13 -84 -23 -113 -23
-47 0 -50 1 -35 16 30 30 136 51 187 37z m-389 -137 c-8 -7 -35 -20 -60 -29
-25 -8 -54 -18 -65 -22 -11 -4 -4 3 15 15 57 37 139 64 110 36z m728 -80 c69
-36 132 -76 120 -76 -10 0 -198 101 -198 106 0 8 11 4 78 -30z m-529 10 c-17
-15 -160 -73 -157 -63 7 19 100 67 132 67 16 0 27 -2 25 -4z m1681 -211 c0
-22 -89 143 -94 175 -4 25 9 6 44 -65 27 -55 50 -104 50 -110z m-3218 138
c-16 -32 -39 -86 -52 -121 -12 -34 -24 -61 -26 -60 -1 2 3 33 10 71 9 45 24
83 47 117 46 67 56 63 21 -7z m576 -38 c-6 -14 -15 -25 -20 -25 -5 0 -1 11 8
25 9 14 18 25 20 25 2 0 -2 -11 -8 -25z m1032 -63 c0 -8 -91 -66 -122 -78 -21
-7 -22 -3 -7 29 6 13 25 31 42 40 34 17 87 22 87 9z m-769 -79 c-18 -36 -101
-125 -101 -110 0 30 90 147 112 147 5 0 0 -17 -11 -37z m2346 -255 c-3 -8 -6
-5 -6 6 -1 11 2 17 5 13 3 -3 4 -12 1 -19z m10 -80 c-2 -13 -4 -5 -4 17 -1 22
1 32 4 23 2 -10 2 -28 0 -40z m-3357 -285 c14 -57 23 -134 26 -218 4 -122 3
-128 -11 -97 -72 155 -120 502 -78 562 17 24 18 24 30 -67 6 -50 21 -131 33
-180z m175 85 c-7 -86 -20 -146 -30 -137 -4 4 9 131 20 197 11 65 17 30 10
-60z m1690 44 c-10 -2 -25 3 -33 12 -15 14 -13 15 17 3 23 -8 28 -13 16 -15z
m215 -86 c-28 -87 -161 -156 -234 -121 -39 19 -113 92 -81 81 61 -22 118 -27
165 -16 54 13 135 61 144 87 12 31 18 4 6 -31z m1380 -125 c-18 -145 -32 -208
-41 -185 -13 34 -10 97 10 166 11 38 23 94 28 125 7 55 8 56 11 19 2 -22 -2
-78 -8 -125z m-903 -46 c-6 -152 -27 -228 -78 -281 -18 -18 -34 -32 -36 -30
-2 2 9 37 26 77 33 85 71 249 71 311 0 24 3 54 7 68 12 44 16 -4 10 -145z
m-2747 105 c0 -38 31 -174 62 -270 43 -134 106 -273 187 -409 38 -64 85 -157
104 -207 65 -169 158 -331 271 -474 49 -62 50 -63 18 -45 -92 54 -260 192
-372 304 -179 179 -260 302 -321 481 -27 81 -33 113 -37 220 -5 136 4 198 45
333 25 83 43 111 43 67z m1014 -97 c32 -68 67 -216 53 -229 -2 -2 -22 35 -44
83 -30 65 -43 106 -47 156 -3 37 -4 67 -2 67 2 0 20 -35 40 -77z m3316 -102
c-62 -399 -261 -789 -567 -1111 -360 -379 -894 -663 -1357 -720 -100 -13 -297
-8 -366 8 -32 8 -28 9 58 25 50 10 132 31 180 47 95 32 507 228 594 282 29 18
94 48 143 67 230 84 497 240 688 401 222 187 401 446 496 720 17 47 50 134 75
194 25 60 48 128 52 150 4 23 9 35 12 27 2 -7 -1 -48 -8 -90z m-2101 42 c-42
-57 -52 -63 -98 -63 -25 0 -64 5 -86 12 l-40 11 80 12 c44 7 96 19 115 28 45
20 45 20 29 0z m-205 -121 c-27 -4 -110 23 -118 37 -3 4 29 -2 70 -13 54 -15
67 -22 48 -24z m162 -7 c-11 -8 -25 -15 -30 -15 -6 1 0 7 14 15 32 19 40 18
16 0z m149 -151 c-69 -64 -190 -127 -283 -148 l-63 -15 -19 32 -19 31 97 22
c114 26 184 52 267 98 33 19 65 34 70 34 6 1 -17 -24 -50 -54z m249 -123 c-21
-28 -39 -49 -42 -47 -7 8 38 85 55 95 30 17 27 3 -13 -48z m830 -18 c-4 -26
-21 -53 -53 -86 -71 -75 -86 -75 -30 0 28 37 57 80 65 96 20 37 26 34 18 -10z
m231 -20 c-30 -66 -35 -73 -35 -48 0 17 46 105 55 105 3 0 -7 -26 -20 -57z
m-1254 -21 c-13 -25 -97 -102 -152 -139 l-46 -32 -41 25 c-41 25 -54 44 -29
44 6 0 37 12 67 27 43 21 193 88 208 92 1 1 -2 -7 -7 -17z m-171 -2 c-8 -5
-19 -10 -25 -10 -5 0 -3 5 5 10 8 5 20 10 25 10 6 0 3 -5 -5 -10z m-455 -124
c27 -45 27 -48 7 -37 -22 12 -44 46 -57 91 -6 22 -5 23 8 10 8 -8 27 -37 42
-64z m1025 54 c-11 -21 -144 -131 -183 -152 -41 -22 94 116 141 144 56 33 55
33 42 8z m-1625 -30 c10 -11 16 -20 13 -20 -3 0 -13 9 -23 20 -10 11 -16 20
-13 20 3 0 13 -9 23 -20z m494 -213 c60 -53 118 -133 106 -145 -9 -10 -77 28
-149 81 -63 48 -73 59 -112 144 -24 51 -44 96 -44 100 0 4 30 -22 68 -58 37
-36 96 -91 131 -122z m355 149 c25 -19 51 -36 58 -39 20 -7 7 -14 -39 -22 -40
-6 -42 -5 -72 39 -17 24 -31 47 -31 50 0 17 45 2 84 -28z m1291 -50 c-37 -64
-115 -126 -279 -226 l-40 -24 31 45 c42 59 80 94 195 173 53 36 100 71 103 77
4 6 9 8 12 5 3 -2 -7 -25 -22 -50z m-2363 -199 c18 -23 26 -37 18 -32 -57 34
-80 62 -119 144 -22 49 -41 93 -41 97 0 4 25 -32 55 -80 30 -49 70 -106 87
-129z m2906 131 c-47 -68 -223 -239 -318 -310 -88 -65 -301 -200 -307 -195 -8
9 153 161 202 192 86 54 267 191 360 274 44 38 81 70 83 71 2 0 -7 -15 -20
-32z m-1483 -8 c-12 -20 -124 -90 -142 -89 -10 0 -27 4 -38 8 -16 6 -7 12 45
30 36 12 81 30 100 41 41 23 43 23 35 10z m220 -26 c-49 -41 -117 -77 -157
-84 -21 -4 -38 -5 -38 -1 1 5 207 108 220 110 3 0 -8 -11 -25 -25z m-604 -134
c21 0 39 -4 39 -9 0 -13 -89 -18 -100 -7 -15 15 -12 29 6 22 9 -3 33 -6 55 -6z
m1098 -36 c-43 -46 -253 -174 -265 -161 -11 11 77 75 172 126 60 32 111 59
113 60 3 0 -6 -11 -20 -25z m-1618 -40 c7 -9 -10 -2 -39 16 -28 17 -52 34 -52
36 0 9 77 -35 91 -52z m1129 31 c-7 -8 -17 -15 -22 -15 -6 0 -5 7 2 15 7 8 17
15 22 15 6 0 5 -7 -2 -15z m501 -123 c-28 -35 -69 -65 -143 -105 -225 -125
-432 -183 -687 -194 -151 -6 -177 2 -84 27 27 7 81 26 121 42 40 15 87 28 104
28 18 0 59 6 92 14 34 8 99 19 145 26 152 21 297 78 424 166 34 24 64 44 65
44 2 0 -14 -22 -37 -48z m-632 8 c-41 -36 -85 -50 -156 -49 l-68 0 40 16 c52
20 199 61 204 57 2 -2 -7 -13 -20 -24z m-1041 -185 c45 -26 80 -50 78 -52 -6
-6 -214 116 -223 130 -3 6 9 2 28 -10 19 -11 71 -42 117 -68z m2 -142 c15 -15
-84 13 -135 38 -75 37 -173 100 -179 115 -3 9 300 -138 314 -153z m1340 12 c0
-2 -29 -20 -65 -40 -76 -43 -167 -60 -355 -68 -102 -5 -115 -4 -70 4 169 31
315 62 390 83 97 27 100 28 100 21z m-1013 -135 c135 -37 257 -58 386 -67 116
-7 105 -19 -26 -29 -58 -5 -108 -1 -171 10 -98 19 -305 79 -345 101 l-26 14
37 1 c21 0 86 -13 145 -30z"/>
</g>
</svg>
